<svg width="602" height="602" viewBox="0 0 602 602" fill="none" xmlns="http://www.w3.org/2000/svg">
<g clip-path="url(#clip0_136_355)">
<path d="M180.755 181.055H0.5V421.395H180.755V181.055Z" fill="#9C9C9C"/>
<path d="M88.8246 239.037C120.681 239.037 146.506 213.213 146.506 181.356C146.506 149.499 120.681 123.674 88.8246 123.674C56.968 123.674 31.1431 149.499 31.1431 181.356C31.1431 213.213 56.968 239.037 88.8246 239.037Z" fill="#9C9C9C"/>
<path d="M240.706 83.5173C240.706 100.128 227.241 113.593 210.631 113.593C194.02 113.593 180.555 100.128 180.555 83.5173H240.706Z" fill="#9C9C9C"/>
<path d="M300.858 83.5173C300.858 100.128 287.393 113.593 270.782 113.593C254.172 113.593 240.707 100.128 240.707 83.5173H300.858Z" fill="#9C9C9C"/>
<path d="M361.01 83.5173C361.01 100.128 347.544 113.593 330.934 113.593C314.324 113.593 300.858 100.128 300.858 83.5173H361.01Z" fill="#9C9C9C"/>
<path d="M240.706 113.922C240.706 130.532 227.241 143.998 210.631 143.998C194.02 143.998 180.555 130.532 180.555 113.922H240.706Z" fill="#9C9C9C"/>
<path d="M300.858 113.922C300.858 130.532 287.393 143.998 270.782 143.998C254.172 143.998 240.707 130.532 240.707 113.922H300.858Z" fill="#9C9C9C"/>
<path d="M361.01 113.922C361.01 130.532 347.544 143.998 330.934 143.998C314.324 143.998 300.858 130.532 300.858 113.922H361.01Z" fill="#9C9C9C"/>
<path d="M240.706 144.49C240.706 161.101 227.241 174.566 210.631 174.566C194.02 174.566 180.555 161.101 180.555 144.49H240.706Z" fill="#282828" fill-opacity="0.9"/>
<path d="M300.858 144.49C300.858 161.101 287.393 174.566 270.782 174.566C254.172 174.566 240.707 161.101 240.707 144.49H300.858Z" fill="#282828" fill-opacity="0.9"/>
<path d="M361.01 144.49C361.01 161.101 347.544 174.566 330.934 174.566C314.324 174.566 300.858 161.101 300.858 144.49H361.01Z" fill="#282828" fill-opacity="0.9"/>
<path d="M90.6272 421.245H0.5V601.5H90.6272V421.245Z" fill="#282828" fill-opacity="0.9"/>
<path d="M90.6272 421.546L0.5 511.223L90.6272 601.2V421.546Z" fill="#9C9C9C"/>
<path d="M416.667 6.43241C415.598 6.43241 414.731 5.56517 414.731 4.49599C414.731 3.42681 415.598 2.55957 416.667 2.55957C417.737 2.55957 418.604 3.42681 418.604 4.49599C418.604 5.56517 417.737 6.43241 416.667 6.43241Z" fill="#9C9C9C"/>
<path d="M416.667 21.014C415.598 21.014 414.731 20.1467 414.731 19.0775C414.731 18.0084 415.598 17.1411 416.667 17.1411C417.737 17.1411 418.604 18.0078 418.604 19.0775C418.604 20.1467 417.737 21.014 416.667 21.014Z" fill="#9C9C9C"/>
<path d="M416.667 35.5953C415.598 35.5953 414.731 34.7286 414.731 33.6588C414.731 32.5897 415.598 31.7224 416.667 31.7224C417.737 31.7224 418.604 32.5891 418.604 33.6588C418.604 34.728 417.737 35.5953 416.667 35.5953Z" fill="#9C9C9C"/>
<path d="M416.667 50.1763C415.598 50.1763 414.731 49.3097 414.731 48.2399C414.731 47.1707 415.598 46.3035 416.667 46.3035C417.737 46.3035 418.604 47.1701 418.604 48.2399C418.604 49.3097 417.737 50.1763 416.667 50.1763Z" fill="#9C9C9C"/>
<path d="M416.667 64.7576C415.598 64.7576 414.731 63.8904 414.731 62.8212C414.731 61.752 415.598 60.8848 416.667 60.8848C417.737 60.8848 418.604 61.7514 418.604 62.8212C418.604 63.891 417.737 64.7576 416.667 64.7576Z" fill="#9C9C9C"/>
<path d="M416.667 79.3391C415.598 79.3391 414.731 78.4719 414.731 77.4027C414.731 76.3336 415.598 75.4663 416.667 75.4663C417.737 75.4663 418.604 76.333 418.604 77.4027C418.604 78.4725 417.737 79.3391 416.667 79.3391Z" fill="#9C9C9C"/>
<path d="M416.667 93.9207C415.598 93.9207 414.731 93.0541 414.731 91.9843C414.731 90.9151 415.598 90.0479 416.667 90.0479C417.737 90.0479 418.604 90.9145 418.604 91.9843C418.604 93.0541 417.737 93.9207 416.667 93.9207Z" fill="#9C9C9C"/>
<path d="M416.667 108.502C415.598 108.502 414.731 107.635 414.731 106.566C414.731 105.496 415.598 104.629 416.667 104.629C417.737 104.629 418.604 105.496 418.604 106.566C418.604 107.635 417.737 108.502 416.667 108.502Z" fill="#9C9C9C"/>
<path d="M416.667 123.084C415.598 123.084 414.731 122.217 414.731 121.147C414.731 120.078 415.598 119.211 416.667 119.211C417.737 119.211 418.604 120.078 418.604 121.147C418.604 122.216 417.737 123.084 416.667 123.084Z" fill="#9C9C9C"/>
<path d="M416.667 137.665C415.598 137.665 414.731 136.798 414.731 135.729C414.731 134.659 415.598 133.792 416.667 133.792C417.737 133.792 418.604 134.659 418.604 135.729C418.604 136.798 417.737 137.665 416.667 137.665Z" fill="#9C9C9C"/>
<path d="M416.667 152.246C415.598 152.246 414.731 151.379 414.731 150.31C414.731 149.241 415.598 148.374 416.667 148.374C417.737 148.374 418.604 149.24 418.604 150.31C418.604 151.379 417.737 152.246 416.667 152.246Z" fill="#9C9C9C"/>
<path d="M416.667 166.827C415.598 166.827 414.731 165.961 414.731 164.891C414.731 163.822 415.598 162.954 416.667 162.954C417.737 162.954 418.604 163.822 418.604 164.891C418.604 165.961 417.737 166.827 416.667 166.827Z" fill="#9C9C9C"/>
<path d="M416.667 181.409C415.598 181.409 414.731 180.542 414.731 179.472C414.731 178.403 415.598 177.536 416.667 177.536C417.737 177.536 418.604 178.403 418.604 179.472C418.604 180.542 417.737 181.409 416.667 181.409Z" fill="#9C9C9C"/>
<path d="M416.667 195.99C415.598 195.99 414.731 195.123 414.731 194.054C414.731 192.985 415.598 192.117 416.667 192.117C417.737 192.117 418.604 192.985 418.604 194.054C418.604 195.123 417.737 195.99 416.667 195.99Z" fill="#9C9C9C"/>
<path d="M394.836 6.43241C393.767 6.43241 392.9 5.56517 392.9 4.49599C392.9 3.42681 393.767 2.55957 394.836 2.55957C395.905 2.55957 396.772 3.42681 396.772 4.49599C396.772 5.56517 395.906 6.43241 394.836 6.43241Z" fill="#9C9C9C"/>
<path d="M394.836 21.014C393.767 21.014 392.9 20.1467 392.9 19.0775C392.9 18.0084 393.767 17.1411 394.836 17.1411C395.905 17.1411 396.772 18.0078 396.772 19.0775C396.772 20.1467 395.906 21.014 394.836 21.014Z" fill="#9C9C9C"/>
<path d="M394.836 35.5953C393.767 35.5953 392.9 34.7286 392.9 33.6588C392.9 32.5897 393.767 31.7224 394.836 31.7224C395.905 31.7224 396.772 32.5891 396.772 33.6588C396.772 34.728 395.906 35.5953 394.836 35.5953Z" fill="#9C9C9C"/>
<path d="M394.836 50.1763C393.767 50.1763 392.9 49.3097 392.9 48.2399C392.9 47.1707 393.767 46.3035 394.836 46.3035C395.905 46.3035 396.772 47.1701 396.772 48.2399C396.772 49.3097 395.906 50.1763 394.836 50.1763Z" fill="#9C9C9C"/>
<path d="M394.836 64.7576C393.767 64.7576 392.9 63.8904 392.9 62.8212C392.9 61.752 393.767 60.8848 394.836 60.8848C395.905 60.8848 396.772 61.7514 396.772 62.8212C396.772 63.891 395.906 64.7576 394.836 64.7576Z" fill="#9C9C9C"/>
<path d="M394.836 79.3391C393.767 79.3391 392.9 78.4719 392.9 77.4027C392.9 76.3336 393.767 75.4663 394.836 75.4663C395.905 75.4663 396.772 76.333 396.772 77.4027C396.772 78.4725 395.906 79.3391 394.836 79.3391Z" fill="#9C9C9C"/>
<path d="M394.836 93.9207C393.767 93.9207 392.9 93.0541 392.9 91.9843C392.9 90.9151 393.767 90.0479 394.836 90.0479C395.905 90.0479 396.772 90.9145 396.772 91.9843C396.772 93.0541 395.906 93.9207 394.836 93.9207Z" fill="#9C9C9C"/>
<path d="M394.836 108.502C393.767 108.502 392.9 107.635 392.9 106.566C392.9 105.496 393.767 104.629 394.836 104.629C395.905 104.629 396.772 105.496 396.772 106.566C396.772 107.635 395.906 108.502 394.836 108.502Z" fill="#9C9C9C"/>
<path d="M394.836 123.084C393.767 123.084 392.9 122.217 392.9 121.147C392.9 120.078 393.767 119.211 394.836 119.211C395.905 119.211 396.772 120.078 396.772 121.147C396.772 122.216 395.906 123.084 394.836 123.084Z" fill="#9C9C9C"/>
<path d="M394.836 137.665C393.767 137.665 392.9 136.798 392.9 135.729C392.9 134.659 393.767 133.792 394.836 133.792C395.905 133.792 396.772 134.659 396.772 135.729C396.772 136.798 395.906 137.665 394.836 137.665Z" fill="#9C9C9C"/>
<path d="M394.836 152.246C393.767 152.246 392.9 151.379 392.9 150.31C392.9 149.241 393.767 148.374 394.836 148.374C395.905 148.374 396.772 149.24 396.772 150.31C396.772 151.379 395.906 152.246 394.836 152.246Z" fill="#9C9C9C"/>
<path d="M394.836 166.827C393.767 166.827 392.9 165.961 392.9 164.891C392.9 163.822 393.767 162.954 394.836 162.954C395.905 162.954 396.772 163.822 396.772 164.891C396.772 165.961 395.906 166.827 394.836 166.827Z" fill="#9C9C9C"/>
<path d="M394.836 181.409C393.767 181.409 392.9 180.542 392.9 179.472C392.9 178.403 393.767 177.536 394.836 177.536C395.905 177.536 396.772 178.403 396.772 179.472C396.772 180.542 395.906 181.409 394.836 181.409Z" fill="#9C9C9C"/>
<path d="M394.836 195.99C393.767 195.99 392.9 195.123 392.9 194.054C392.9 192.985 393.767 192.117 394.836 192.117C395.905 192.117 396.772 192.985 396.772 194.054C396.772 195.123 395.906 195.99 394.836 195.99Z" fill="#9C9C9C"/>
<path d="M373.005 6.43241C374.075 6.43241 374.942 5.56545 374.942 4.49599C374.942 3.42654 374.075 2.55957 373.005 2.55957C371.936 2.55957 371.069 3.42654 371.069 4.49599C371.069 5.56545 371.936 6.43241 373.005 6.43241Z" fill="#9C9C9C"/>
<path d="M373.005 21.014C371.936 21.014 371.069 20.1467 371.069 19.0775C371.069 18.0084 371.936 17.1411 373.005 17.1411C374.075 17.1411 374.942 18.0078 374.942 19.0775C374.942 20.1467 374.075 21.014 373.005 21.014Z" fill="#9C9C9C"/>
<path d="M373.005 35.5953C371.936 35.5953 371.069 34.7286 371.069 33.6588C371.069 32.5897 371.936 31.7224 373.005 31.7224C374.075 31.7224 374.942 32.5891 374.942 33.6588C374.942 34.728 374.075 35.5953 373.005 35.5953Z" fill="#9C9C9C"/>
<path d="M373.005 50.1763C371.936 50.1763 371.069 49.3097 371.069 48.2399C371.069 47.1707 371.936 46.3035 373.005 46.3035C374.075 46.3035 374.942 47.1701 374.942 48.2399C374.942 49.3097 374.075 50.1763 373.005 50.1763Z" fill="#9C9C9C"/>
<path d="M373.005 64.7583C374.075 64.7583 374.942 63.8914 374.942 62.8219C374.942 61.7525 374.075 60.8855 373.005 60.8855C371.936 60.8855 371.069 61.7525 371.069 62.8219C371.069 63.8914 371.936 64.7583 373.005 64.7583Z" fill="#9C9C9C"/>
<path d="M373.005 79.3391C371.936 79.3391 371.069 78.4719 371.069 77.4027C371.069 76.3336 371.936 75.4663 373.005 75.4663C374.075 75.4663 374.942 76.333 374.942 77.4027C374.942 78.4725 374.075 79.3391 373.005 79.3391Z" fill="#9C9C9C"/>
<path d="M373.005 93.9207C371.936 93.9207 371.069 93.0541 371.069 91.9843C371.069 90.9151 371.936 90.0479 373.005 90.0479C374.075 90.0479 374.942 90.9145 374.942 91.9843C374.942 93.0541 374.075 93.9207 373.005 93.9207Z" fill="#9C9C9C"/>
<path d="M373.005 108.502C371.936 108.502 371.069 107.635 371.069 106.566C371.069 105.496 371.936 104.629 373.005 104.629C374.075 104.629 374.942 105.496 374.942 106.566C374.942 107.635 374.075 108.502 373.005 108.502Z" fill="#9C9C9C"/>
<path d="M373.005 123.084C371.936 123.084 371.069 122.217 371.069 121.147C371.069 120.078 371.936 119.211 373.005 119.211C374.075 119.211 374.942 120.078 374.942 121.147C374.942 122.216 374.075 123.084 373.005 123.084Z" fill="#9C9C9C"/>
<path d="M373.005 137.665C371.936 137.665 371.069 136.798 371.069 135.729C371.069 134.659 371.936 133.792 373.005 133.792C374.075 133.792 374.942 134.659 374.942 135.729C374.942 136.798 374.075 137.665 373.005 137.665Z" fill="#9C9C9C"/>
<path d="M373.005 152.246C371.936 152.246 371.069 151.379 371.069 150.31C371.069 149.241 371.936 148.374 373.005 148.374C374.075 148.374 374.942 149.24 374.942 150.31C374.942 151.379 374.075 152.246 373.005 152.246Z" fill="#9C9C9C"/>
<path d="M373.005 166.827C371.936 166.827 371.069 165.961 371.069 164.891C371.069 163.822 371.936 162.954 373.005 162.954C374.075 162.954 374.942 163.822 374.942 164.891C374.942 165.961 374.075 166.827 373.005 166.827Z" fill="#9C9C9C"/>
<path d="M373.005 181.409C371.936 181.409 371.069 180.542 371.069 179.472C371.069 178.403 371.936 177.536 373.005 177.536C374.075 177.536 374.942 178.403 374.942 179.472C374.942 180.542 374.075 181.409 373.005 181.409Z" fill="#9C9C9C"/>
<path d="M373.005 195.99C374.075 195.99 374.942 195.123 374.942 194.054C374.942 192.984 374.075 192.117 373.005 192.117C371.936 192.117 371.069 192.984 371.069 194.054C371.069 195.123 371.936 195.99 373.005 195.99Z" fill="#9C9C9C"/>
<path d="M438.498 6.43241C437.429 6.43241 436.562 5.56517 436.562 4.49599C436.562 3.42681 437.428 2.55957 438.498 2.55957C439.567 2.55957 440.435 3.42681 440.435 4.49599C440.435 5.56517 439.567 6.43241 438.498 6.43241Z" fill="#9C9C9C"/>
<path d="M438.498 21.014C437.429 21.014 436.562 20.1467 436.562 19.0775C436.562 18.0084 437.428 17.1411 438.498 17.1411C439.567 17.1411 440.435 18.0078 440.435 19.0775C440.435 20.1467 439.567 21.014 438.498 21.014Z" fill="#9C9C9C"/>
<path d="M438.498 35.5953C437.429 35.5953 436.562 34.7286 436.562 33.6588C436.562 32.5897 437.428 31.7224 438.498 31.7224C439.567 31.7224 440.435 32.5891 440.435 33.6588C440.435 34.728 439.567 35.5953 438.498 35.5953Z" fill="#9C9C9C"/>
<path d="M438.498 50.1763C437.429 50.1763 436.562 49.3097 436.562 48.2399C436.562 47.1707 437.428 46.3035 438.498 46.3035C439.567 46.3035 440.435 47.1701 440.435 48.2399C440.435 49.3097 439.567 50.1763 438.498 50.1763Z" fill="#9C9C9C"/>
<path d="M438.498 64.7576C437.429 64.7576 436.562 63.8904 436.562 62.8212C436.562 61.752 437.428 60.8848 438.498 60.8848C439.567 60.8848 440.435 61.7514 440.435 62.8212C440.435 63.891 439.567 64.7576 438.498 64.7576Z" fill="#9C9C9C"/>
<path d="M438.498 79.3391C437.429 79.3391 436.562 78.4719 436.562 77.4027C436.562 76.3336 437.428 75.4663 438.498 75.4663C439.567 75.4663 440.435 76.333 440.435 77.4027C440.435 78.4725 439.567 79.3391 438.498 79.3391Z" fill="#9C9C9C"/>
<path d="M438.498 93.9207C437.429 93.9207 436.562 93.0541 436.562 91.9843C436.562 90.9151 437.428 90.0479 438.498 90.0479C439.567 90.0479 440.435 90.9145 440.435 91.9843C440.435 93.0541 439.567 93.9207 438.498 93.9207Z" fill="#9C9C9C"/>
<path d="M438.498 108.502C437.429 108.502 436.562 107.635 436.562 106.566C436.562 105.496 437.428 104.629 438.498 104.629C439.567 104.629 440.435 105.496 440.435 106.566C440.435 107.635 439.567 108.502 438.498 108.502Z" fill="#9C9C9C"/>
<path d="M438.498 123.084C437.429 123.084 436.562 122.217 436.562 121.147C436.562 120.078 437.428 119.211 438.498 119.211C439.567 119.211 440.435 120.078 440.435 121.147C440.435 122.216 439.567 123.084 438.498 123.084Z" fill="#9C9C9C"/>
<path d="M438.498 137.665C437.429 137.665 436.562 136.798 436.562 135.729C436.562 134.659 437.428 133.792 438.498 133.792C439.567 133.792 440.435 134.659 440.435 135.729C440.435 136.798 439.567 137.665 438.498 137.665Z" fill="#9C9C9C"/>
<path d="M438.498 152.246C437.429 152.246 436.562 151.379 436.562 150.31C436.562 149.241 437.428 148.374 438.498 148.374C439.567 148.374 440.435 149.24 440.435 150.31C440.435 151.379 439.567 152.246 438.498 152.246Z" fill="#9C9C9C"/>
<path d="M438.498 166.827C437.429 166.827 436.562 165.961 436.562 164.891C436.562 163.822 437.428 162.954 438.498 162.954C439.567 162.954 440.435 163.822 440.435 164.891C440.435 165.961 439.567 166.827 438.498 166.827Z" fill="#9C9C9C"/>
<path d="M438.498 181.409C437.429 181.409 436.562 180.542 436.562 179.472C436.562 178.403 437.428 177.536 438.498 177.536C439.567 177.536 440.435 178.403 440.435 179.472C440.435 180.542 439.567 181.409 438.498 181.409Z" fill="#9C9C9C"/>
<path d="M438.498 195.99C437.429 195.99 436.562 195.123 436.562 194.054C436.562 192.985 437.428 192.117 438.498 192.117C439.567 192.117 440.435 192.985 440.435 194.054C440.435 195.123 439.567 195.99 438.498 195.99Z" fill="#9C9C9C"/>
<path d="M460.329 6.43241C459.26 6.43241 458.392 5.56517 458.392 4.49599C458.392 3.42681 459.26 2.55957 460.329 2.55957C461.398 2.55957 462.265 3.42681 462.265 4.49599C462.265 5.56517 461.399 6.43241 460.329 6.43241Z" fill="#9C9C9C"/>
<path d="M460.329 21.014C459.26 21.014 458.392 20.1467 458.392 19.0775C458.392 18.0084 459.26 17.1411 460.329 17.1411C461.398 17.1411 462.265 18.0078 462.265 19.0775C462.265 20.1467 461.399 21.014 460.329 21.014Z" fill="#9C9C9C"/>
<path d="M460.329 35.5953C459.26 35.5953 458.392 34.7286 458.392 33.6588C458.392 32.5897 459.26 31.7224 460.329 31.7224C461.398 31.7224 462.265 32.5891 462.265 33.6588C462.265 34.728 461.399 35.5953 460.329 35.5953Z" fill="#9C9C9C"/>
<path d="M460.329 50.1763C459.26 50.1763 458.392 49.3097 458.392 48.2399C458.392 47.1707 459.26 46.3035 460.329 46.3035C461.398 46.3035 462.265 47.1701 462.265 48.2399C462.265 49.3097 461.399 50.1763 460.329 50.1763Z" fill="#9C9C9C"/>
<path d="M460.329 64.7576C459.26 64.7576 458.392 63.8904 458.392 62.8212C458.392 61.752 459.26 60.8848 460.329 60.8848C461.398 60.8848 462.265 61.7514 462.265 62.8212C462.265 63.891 461.399 64.7576 460.329 64.7576Z" fill="#9C9C9C"/>
<path d="M460.329 79.3391C459.26 79.3391 458.392 78.4719 458.392 77.4027C458.392 76.3336 459.26 75.4663 460.329 75.4663C461.398 75.4663 462.265 76.333 462.265 77.4027C462.265 78.4725 461.399 79.3391 460.329 79.3391Z" fill="#9C9C9C"/>
<path d="M460.329 93.9207C459.26 93.9207 458.392 93.0541 458.392 91.9843C458.392 90.9151 459.26 90.0479 460.329 90.0479C461.398 90.0479 462.265 90.9145 462.265 91.9843C462.265 93.0541 461.399 93.9207 460.329 93.9207Z" fill="#9C9C9C"/>
<path d="M460.329 108.502C459.26 108.502 458.392 107.635 458.392 106.566C458.392 105.496 459.26 104.629 460.329 104.629C461.398 104.629 462.265 105.496 462.265 106.566C462.265 107.635 461.399 108.502 460.329 108.502Z" fill="#9C9C9C"/>
<path d="M460.329 123.084C459.26 123.084 458.392 122.217 458.392 121.147C458.392 120.078 459.26 119.211 460.329 119.211C461.398 119.211 462.265 120.078 462.265 121.147C462.265 122.216 461.399 123.084 460.329 123.084Z" fill="#9C9C9C"/>
<path d="M460.329 137.665C459.26 137.665 458.392 136.798 458.392 135.729C458.392 134.659 459.26 133.792 460.329 133.792C461.398 133.792 462.265 134.659 462.265 135.729C462.265 136.798 461.399 137.665 460.329 137.665Z" fill="#9C9C9C"/>
<path d="M460.329 152.246C459.26 152.246 458.392 151.379 458.392 150.31C458.392 149.241 459.26 148.374 460.329 148.374C461.398 148.374 462.265 149.24 462.265 150.31C462.265 151.379 461.399 152.246 460.329 152.246Z" fill="#9C9C9C"/>
<path d="M460.329 166.827C459.26 166.827 458.392 165.961 458.392 164.891C458.392 163.822 459.26 162.954 460.329 162.954C461.398 162.954 462.265 163.822 462.265 164.891C462.265 165.961 461.399 166.827 460.329 166.827Z" fill="#9C9C9C"/>
<path d="M460.329 181.409C459.26 181.409 458.392 180.542 458.392 179.472C458.392 178.403 459.26 177.536 460.329 177.536C461.398 177.536 462.265 178.403 462.265 179.472C462.265 180.542 461.399 181.409 460.329 181.409Z" fill="#9C9C9C"/>
<path d="M460.329 195.99C459.26 195.99 458.392 195.123 458.392 194.054C458.392 192.985 459.26 192.117 460.329 192.117C461.398 192.117 462.265 192.985 462.265 194.054C462.265 195.123 461.399 195.99 460.329 195.99Z" fill="#9C9C9C"/>
<path d="M482.159 6.43241C481.09 6.43241 480.223 5.56517 480.223 4.49599C480.223 3.42681 481.09 2.55957 482.159 2.55957C483.229 2.55957 484.096 3.42681 484.096 4.49599C484.096 5.56517 483.229 6.43241 482.159 6.43241Z" fill="#9C9C9C"/>
<path d="M482.159 21.014C481.09 21.014 480.223 20.1467 480.223 19.0775C480.223 18.0084 481.09 17.1411 482.159 17.1411C483.229 17.1411 484.096 18.0078 484.096 19.0775C484.096 20.1467 483.229 21.014 482.159 21.014Z" fill="#9C9C9C"/>
<path d="M482.159 35.5953C481.09 35.5953 480.223 34.7286 480.223 33.6588C480.223 32.5897 481.09 31.7224 482.159 31.7224C483.229 31.7224 484.096 32.5891 484.096 33.6588C484.096 34.728 483.229 35.5953 482.159 35.5953Z" fill="#9C9C9C"/>
<path d="M482.159 50.1763C481.09 50.1763 480.223 49.3097 480.223 48.2399C480.223 47.1707 481.09 46.3035 482.159 46.3035C483.229 46.3035 484.096 47.1701 484.096 48.2399C484.096 49.3097 483.229 50.1763 482.159 50.1763Z" fill="#9C9C9C"/>
<path d="M482.159 64.7576C481.09 64.7576 480.223 63.8904 480.223 62.8212C480.223 61.752 481.09 60.8848 482.159 60.8848C483.229 60.8848 484.096 61.7514 484.096 62.8212C484.096 63.891 483.229 64.7576 482.159 64.7576Z" fill="#9C9C9C"/>
<path d="M482.159 79.3391C481.09 79.3391 480.223 78.4719 480.223 77.4027C480.223 76.3336 481.09 75.4663 482.159 75.4663C483.229 75.4663 484.096 76.333 484.096 77.4027C484.096 78.4725 483.229 79.3391 482.159 79.3391Z" fill="#9C9C9C"/>
<path d="M482.159 93.9207C481.09 93.9207 480.223 93.0541 480.223 91.9843C480.223 90.9151 481.09 90.0479 482.159 90.0479C483.229 90.0479 484.096 90.9145 484.096 91.9843C484.096 93.0541 483.229 93.9207 482.159 93.9207Z" fill="#9C9C9C"/>
<path d="M482.159 108.502C481.09 108.502 480.223 107.635 480.223 106.566C480.223 105.496 481.09 104.629 482.159 104.629C483.229 104.629 484.096 105.496 484.096 106.566C484.096 107.635 483.229 108.502 482.159 108.502Z" fill="#9C9C9C"/>
<path d="M482.159 123.084C481.09 123.084 480.223 122.217 480.223 121.147C480.223 120.078 481.09 119.211 482.159 119.211C483.229 119.211 484.096 120.078 484.096 121.147C484.096 122.216 483.229 123.084 482.159 123.084Z" fill="#9C9C9C"/>
<path d="M482.159 137.665C481.09 137.665 480.223 136.798 480.223 135.729C480.223 134.659 481.09 133.792 482.159 133.792C483.229 133.792 484.096 134.659 484.096 135.729C484.096 136.798 483.229 137.665 482.159 137.665Z" fill="#9C9C9C"/>
<path d="M482.159 152.246C481.09 152.246 480.223 151.379 480.223 150.31C480.223 149.241 481.09 148.374 482.159 148.374C483.229 148.374 484.096 149.24 484.096 150.31C484.096 151.379 483.229 152.246 482.159 152.246Z" fill="#9C9C9C"/>
<path d="M482.159 166.827C481.09 166.827 480.223 165.961 480.223 164.891C480.223 163.822 481.09 162.954 482.159 162.954C483.229 162.954 484.096 163.822 484.096 164.891C484.096 165.961 483.229 166.827 482.159 166.827Z" fill="#9C9C9C"/>
<path d="M482.159 181.409C481.09 181.409 480.223 180.542 480.223 179.472C480.223 178.403 481.09 177.536 482.159 177.536C483.229 177.536 484.096 178.403 484.096 179.472C484.096 180.542 483.229 181.409 482.159 181.409Z" fill="#9C9C9C"/>
<path d="M482.159 195.99C481.09 195.99 480.223 195.123 480.223 194.054C480.223 192.985 481.09 192.117 482.159 192.117C483.229 192.117 484.096 192.985 484.096 194.054C484.096 195.123 483.229 195.99 482.159 195.99Z" fill="#9C9C9C"/>
<path d="M503.991 6.43241C502.921 6.43241 502.054 5.56517 502.054 4.49599C502.054 3.42681 502.921 2.55957 503.991 2.55957C505.06 2.55957 505.927 3.42681 505.927 4.49599C505.927 5.56517 505.06 6.43241 503.991 6.43241Z" fill="#9C9C9C"/>
<path d="M503.991 21.014C502.921 21.014 502.054 20.1467 502.054 19.0775C502.054 18.0084 502.921 17.1411 503.991 17.1411C505.06 17.1411 505.927 18.0078 505.927 19.0775C505.927 20.1467 505.06 21.014 503.991 21.014Z" fill="#9C9C9C"/>
<path d="M503.991 35.5953C502.921 35.5953 502.054 34.7286 502.054 33.6588C502.054 32.5897 502.921 31.7224 503.991 31.7224C505.06 31.7224 505.927 32.5891 505.927 33.6588C505.927 34.728 505.06 35.5953 503.991 35.5953Z" fill="#9C9C9C"/>
<path d="M503.991 50.1763C502.921 50.1763 502.054 49.3097 502.054 48.2399C502.054 47.1707 502.921 46.3035 503.991 46.3035C505.06 46.3035 505.927 47.1701 505.927 48.2399C505.927 49.3097 505.06 50.1763 503.991 50.1763Z" fill="#9C9C9C"/>
<path d="M503.991 64.7576C502.921 64.7576 502.054 63.8904 502.054 62.8212C502.054 61.752 502.921 60.8848 503.991 60.8848C505.06 60.8848 505.927 61.7514 505.927 62.8212C505.927 63.891 505.06 64.7576 503.991 64.7576Z" fill="#9C9C9C"/>
<path d="M503.991 79.3391C502.921 79.3391 502.054 78.4719 502.054 77.4027C502.054 76.3336 502.921 75.4663 503.991 75.4663C505.06 75.4663 505.927 76.333 505.927 77.4027C505.927 78.4725 505.06 79.3391 503.991 79.3391Z" fill="#9C9C9C"/>
<path d="M503.991 93.9207C502.921 93.9207 502.054 93.0541 502.054 91.9843C502.054 90.9151 502.921 90.0479 503.991 90.0479C505.06 90.0479 505.927 90.9145 505.927 91.9843C505.927 93.0541 505.06 93.9207 503.991 93.9207Z" fill="#9C9C9C"/>
<path d="M503.991 108.502C502.921 108.502 502.054 107.635 502.054 106.566C502.054 105.496 502.921 104.629 503.991 104.629C505.06 104.629 505.927 105.496 505.927 106.566C505.927 107.635 505.06 108.502 503.991 108.502Z" fill="#9C9C9C"/>
<path d="M503.991 123.084C502.921 123.084 502.054 122.217 502.054 121.147C502.054 120.078 502.921 119.211 503.991 119.211C505.06 119.211 505.927 120.078 505.927 121.147C505.927 122.216 505.06 123.084 503.991 123.084Z" fill="#9C9C9C"/>
<path d="M503.991 137.665C502.921 137.665 502.054 136.798 502.054 135.729C502.054 134.659 502.921 133.792 503.991 133.792C505.06 133.792 505.927 134.659 505.927 135.729C505.927 136.798 505.06 137.665 503.991 137.665Z" fill="#9C9C9C"/>
<path d="M503.991 152.246C502.921 152.246 502.054 151.379 502.054 150.31C502.054 149.241 502.921 148.374 503.991 148.374C505.06 148.374 505.927 149.24 505.927 150.31C505.927 151.379 505.06 152.246 503.991 152.246Z" fill="#9C9C9C"/>
<path d="M503.991 166.827C502.921 166.827 502.054 165.961 502.054 164.891C502.054 163.822 502.921 162.954 503.991 162.954C505.06 162.954 505.927 163.822 505.927 164.891C505.927 165.961 505.06 166.827 503.991 166.827Z" fill="#9C9C9C"/>
<path d="M503.991 181.409C502.921 181.409 502.054 180.542 502.054 179.472C502.054 178.403 502.921 177.536 503.991 177.536C505.06 177.536 505.927 178.403 505.927 179.472C505.927 180.542 505.06 181.409 503.991 181.409Z" fill="#9C9C9C"/>
<path d="M503.991 195.99C502.921 195.99 502.054 195.123 502.054 194.054C502.054 192.985 502.921 192.117 503.991 192.117C505.06 192.117 505.927 192.985 505.927 194.054C505.927 195.123 505.06 195.99 503.991 195.99Z" fill="#9C9C9C"/>
<path d="M361.611 83.0872H181.356V84.2892H361.611V83.0872Z" fill="#9C9C9C"/>
<path d="M361.611 64.3857H181.356V65.5877H361.611V64.3857Z" fill="#9C9C9C"/>
<path d="M361.611 45.6838H181.356V46.8858H361.611V45.6838Z" fill="#9C9C9C"/>
<path d="M361.611 26.9827H181.356V28.1847H361.611V26.9827Z" fill="#9C9C9C"/>
<path d="M361.611 8.28125H181.356V9.48325H361.611V8.28125Z" fill="#9C9C9C"/>
<path d="M601.35 547.36L511.102 384.314L481.162 438.094L482.093 439.783C526.155 440.276 561.72 475.666 561.72 519.257C561.72 534.844 557.169 549.38 549.312 561.651L571.209 601.35L601.35 547.36Z" fill="#9C9C9C"/>
<path d="M481.162 599.352H480.579V439.162H481.162C481.363 439.162 481.564 439.166 481.764 439.169L482.432 439.178L482.599 439.479L549.998 561.675L549.797 561.99C534.817 585.385 509.159 599.352 481.162 599.352ZM481.745 440.387V598.131C509 597.94 533.939 584.331 548.625 561.625L481.754 440.387H481.745Z" fill="#9C9C9C"/>
<path d="M482.094 439.783L549.313 561.651C557.17 549.381 561.72 534.844 561.72 519.257C561.72 475.666 526.154 440.276 482.094 439.783Z" fill="#9C9C9C"/>
<path d="M549.275 562.804L548.807 561.954L481.079 439.163L482.1 439.174C503.57 439.415 523.719 447.847 538.832 462.918C553.967 478.01 562.303 498.018 562.303 519.257C562.303 534.436 557.978 549.213 549.797 561.99L549.275 562.804ZM483.113 440.411L549.346 560.492C557.063 548.105 561.137 533.869 561.137 519.257C561.137 498.355 552.931 478.659 538.028 463.799C523.369 449.183 503.901 440.9 483.113 440.411Z" fill="#9C9C9C"/>
<path d="M376.615 522.248L359.992 502.441L343.366 522.248L326.741 502.441L310.116 522.248L293.511 502.464L278.691 521.681L277.739 520.947L293.472 500.548L310.116 520.379L326.741 500.572L343.366 520.379L359.992 500.572L376.615 520.379L393.24 500.572L409.865 520.379L426.492 500.572L443.117 520.379L459.745 500.572L476.833 520.927L475.913 521.7L459.745 502.441L443.117 522.248L426.492 502.441L409.865 522.248L393.24 502.441L376.615 522.248Z" fill="#9C9C9C"/>
<path d="M375.483 504.549L358.859 484.741L342.234 504.549L325.609 484.741L308.984 504.549L292.379 484.765L277.559 503.981L276.607 503.247L292.34 482.849L308.984 502.679L325.609 482.872L342.234 502.679L358.859 482.872L375.483 502.679L392.107 482.872L408.733 502.679L425.359 482.872L441.985 502.679L458.613 482.872L475.701 503.228L474.78 504L458.613 484.741L441.985 504.549L425.359 484.741L408.733 504.549L392.107 484.741L375.483 504.549Z" fill="#9C9C9C"/>
<path d="M374.35 486.85L357.727 467.042L341.102 486.85L324.476 467.042L307.851 486.85L291.246 467.066L276.426 486.282L275.474 485.548L291.207 465.149L307.851 484.98L324.476 465.173L341.102 484.98L357.727 465.173L374.35 484.98L390.975 465.173L407.6 484.981L424.227 465.173L440.853 484.981L457.48 465.173L474.569 485.528L473.648 486.301L457.48 467.042L440.853 486.849L424.227 467.042L407.6 486.85L390.975 467.042L374.35 486.85Z" fill="#9C9C9C"/>
<path d="M373.218 469.15L356.594 449.342L339.969 469.15L323.344 449.342L306.719 469.15L290.114 449.366L275.293 468.582L274.342 467.848L290.074 447.45L306.719 467.281L323.344 447.473L339.969 467.281L356.594 447.473L373.218 467.281L389.843 447.473L406.468 467.281L423.094 447.473L439.72 467.281L456.348 447.473L473.436 467.829L472.516 468.602L456.348 449.342L439.72 469.15L423.094 449.342L406.468 469.15L389.843 449.342L373.218 469.15Z" fill="#9C9C9C"/>
<path d="M372.086 451.45L355.462 431.643L338.837 451.45L322.212 431.643L305.586 451.45L288.982 431.666L274.161 450.883L273.21 450.148L288.942 429.75L305.586 449.581L322.212 429.774L338.837 449.581L355.462 429.774L372.086 449.581L388.71 429.774L405.336 449.581L421.962 429.774L438.588 449.581L455.216 429.774L472.304 450.129L471.383 450.902L455.216 431.643L438.588 451.45L421.962 431.643L405.336 451.45L388.71 431.643L372.086 451.45Z" fill="#9C9C9C"/>
<path d="M419.893 421.095H178.02L298.957 211.626L419.893 421.095ZM180.402 419.72H417.51L298.956 214.377L180.402 419.72Z" fill="#9C9C9C"/>
<path d="M400.01 388.092L381.353 420.407H418.668L400.01 388.092Z" fill="#9C9C9C"/>
<path d="M182.19 181L181 181.689L319.191 420.269L320.381 419.58L182.19 181Z" fill="#9C9C9C"/>
<path d="M348.424 299.598L285.856 362.165L286.828 363.138L349.396 300.57L348.424 299.598Z" fill="#9C9C9C"/>
<path d="M358.393 316.458L296.169 378.682L297.141 379.654L359.365 317.43L358.393 316.458Z" fill="#9C9C9C"/>
<path d="M367.675 333.288L305.108 395.856L306.08 396.828L368.648 334.261L367.675 333.288Z" fill="#9C9C9C"/>
<path d="M601.499 0.5H511.372V196.978H601.499V0.5Z" fill="#9C9C9C"/>
<path d="M511.673 148.309C511.673 174.499 531.714 195.729 556.436 195.729C581.158 195.729 601.199 174.499 601.199 148.309H511.673Z" fill="#F8F9FA"/>
<path d="M601.35 204.188H511.372L601.35 294.165V204.188Z" fill="#9C9C9C"/>
<path d="M511.223 204.338V204.188H421.245V294.316L511.223 204.338Z" fill="#9C9C9C"/>
<path d="M511.372 384.443H601.35V294.466L511.372 384.443Z" fill="#9C9C9C"/>
<path d="M421.245 294.316V384.443H511.223V384.293L421.245 294.316Z" fill="#9C9C9C"/>
<path d="M511.223 294.316H601.35V294.165L511.372 204.188L511.223 204.338V294.316Z" fill="#282828" fill-opacity="0.9"/>
<path d="M421.245 294.316H511.223V204.338L421.245 294.316Z" fill="#F8F9FA"/>
<path d="M601.35 294.316H511.223V384.293L511.372 384.443L601.35 294.466V294.316Z" fill="#F8F9FA"/>
<path d="M511.223 384.293V294.316H421.245L511.223 384.293Z" fill="#282828" fill-opacity="0.9"/>
<mask id="mask0_136_355" style="mask-type:luminance" maskUnits="userSpaceOnUse" x="0" y="0" width="91" height="181">
<path d="M90.6272 0.5V180.755H0.5L90.6272 0.5Z" fill="white"/>
</mask>
<g mask="url(#mask0_136_355)">
<path d="M90.2263 180.755L90.6272 180.435V180.755H90.2263Z" fill="#F8F9FA"/>
</g>
<mask id="mask1_136_355" style="mask-type:luminance" maskUnits="userSpaceOnUse" x="0" y="0" width="91" height="181">
<path d="M90.6272 0.5V180.755H0.5L90.6272 0.5Z" fill="white"/>
</mask>
<g mask="url(#mask1_136_355)">
<path d="M85.3396 180.755L90.6272 176.544V180.435L90.2263 180.755H85.3396Z" fill="#F8F9FA"/>
</g>
<mask id="mask2_136_355" style="mask-type:luminance" maskUnits="userSpaceOnUse" x="0" y="0" width="91" height="181">
<path d="M90.6272 0.5V180.755H0.5L90.6272 0.5Z" fill="white"/>
</mask>
<g mask="url(#mask2_136_355)">
<path d="M80.4529 180.755L90.6272 172.653V176.544L85.3396 180.755H80.4529Z" fill="#F8F9FA"/>
</g>
<mask id="mask3_136_355" style="mask-type:luminance" maskUnits="userSpaceOnUse" x="0" y="0" width="91" height="181">
<path d="M90.6272 0.5V180.755H0.5L90.6272 0.5Z" fill="white"/>
</mask>
<g mask="url(#mask3_136_355)">
<path d="M75.5656 180.755L90.6272 168.761V172.653L80.4529 180.755H75.5656Z" fill="#F8F9FA"/>
</g>
<mask id="mask4_136_355" style="mask-type:luminance" maskUnits="userSpaceOnUse" x="0" y="0" width="91" height="181">
<path d="M90.6272 0.5V180.755H0.5L90.6272 0.5Z" fill="white"/>
</mask>
<g mask="url(#mask4_136_355)">
<path d="M70.6787 180.755L90.6271 164.87V168.761L75.5654 180.755H70.6787Z" fill="#F8F9FA"/>
</g>
<mask id="mask5_136_355" style="mask-type:luminance" maskUnits="userSpaceOnUse" x="0" y="0" width="91" height="181">
<path d="M90.6272 0.5V180.755H0.5L90.6272 0.5Z" fill="white"/>
</mask>
<g mask="url(#mask5_136_355)">
<path d="M65.792 180.755L90.6271 160.979V164.87L70.6787 180.755H65.792Z" fill="#F8F9FA"/>
</g>
<mask id="mask6_136_355" style="mask-type:luminance" maskUnits="userSpaceOnUse" x="0" y="0" width="91" height="181">
<path d="M90.6272 0.5V180.755H0.5L90.6272 0.5Z" fill="white"/>
</mask>
<g mask="url(#mask6_136_355)">
<path d="M60.9053 180.755L90.6271 157.088V160.979L65.792 180.755H60.9053Z" fill="#F8F9FA"/>
</g>
<mask id="mask7_136_355" style="mask-type:luminance" maskUnits="userSpaceOnUse" x="0" y="0" width="91" height="181">
<path d="M90.6272 0.5V180.755H0.5L90.6272 0.5Z" fill="white"/>
</mask>
<g mask="url(#mask7_136_355)">
<path d="M56.0186 180.755L90.6271 153.196V157.088L60.9053 180.755H56.0186Z" fill="#F8F9FA"/>
</g>
<mask id="mask8_136_355" style="mask-type:luminance" maskUnits="userSpaceOnUse" x="0" y="0" width="91" height="181">
<path d="M90.6272 0.5V180.755H0.5L90.6272 0.5Z" fill="white"/>
</mask>
<g mask="url(#mask8_136_355)">
<path d="M51.1318 180.755L90.6272 149.305V153.196L56.0186 180.755H51.1318Z" fill="#F8F9FA"/>
</g>
<mask id="mask9_136_355" style="mask-type:luminance" maskUnits="userSpaceOnUse" x="0" y="0" width="91" height="181">
<path d="M90.6272 0.5V180.755H0.5L90.6272 0.5Z" fill="white"/>
</mask>
<g mask="url(#mask9_136_355)">
<path d="M46.2451 180.755L90.6272 145.413V149.305L51.1319 180.755H46.2451Z" fill="#F8F9FA"/>
</g>
<mask id="mask10_136_355" style="mask-type:luminance" maskUnits="userSpaceOnUse" x="0" y="0" width="91" height="181">
<path d="M90.6272 0.5V180.755H0.5L90.6272 0.5Z" fill="white"/>
</mask>
<g mask="url(#mask10_136_355)">
<path d="M41.3584 180.755L90.6272 141.522V145.413L46.2451 180.755H41.3584Z" fill="#F8F9FA"/>
</g>
<mask id="mask11_136_355" style="mask-type:luminance" maskUnits="userSpaceOnUse" x="0" y="0" width="91" height="181">
<path d="M90.6272 0.5V180.755H0.5L90.6272 0.5Z" fill="white"/>
</mask>
<g mask="url(#mask11_136_355)">
<path d="M36.4717 180.755L90.6272 137.631V141.522L41.3584 180.755H36.4717Z" fill="#F8F9FA"/>
</g>
<mask id="mask12_136_355" style="mask-type:luminance" maskUnits="userSpaceOnUse" x="0" y="0" width="91" height="181">
<path d="M90.6272 0.5V180.755H0.5L90.6272 0.5Z" fill="white"/>
</mask>
<g mask="url(#mask12_136_355)">
<path d="M31.585 180.755L90.6272 133.739V137.631L36.4717 180.755H31.585Z" fill="#F8F9FA"/>
</g>
<mask id="mask13_136_355" style="mask-type:luminance" maskUnits="userSpaceOnUse" x="0" y="0" width="91" height="181">
<path d="M90.6272 0.5V180.755H0.5L90.6272 0.5Z" fill="white"/>
</mask>
<g mask="url(#mask13_136_355)">
<path d="M90.6272 133.739L31.5849 180.755H0.5V0.5H90.6272V133.739Z" fill="#F8F9FA"/>
</g>
<path d="M90.6272 0.5H180.755V180.755L90.6272 0.5Z" fill="#9C9C9C"/>
<path d="M245.085 575.173L271.263 601.35H271.483V421.095H181.356V511.444L245.085 575.173Z" fill="#282828" fill-opacity="0.9"/>
<path d="M181.356 421.095H91.2281V601.35H91.4493L181.356 511.444V421.095Z" fill="#9C9C9C"/>
<path d="M181.356 511.444V601.35H271.483L245.085 575.173L181.356 511.444Z" fill="#F8F9FA"/>
<path d="M181.356 511.444L91.4493 601.35H181.356V511.444Z" fill="#282828" fill-opacity="0.9"/>
<path d="M91.8303 601.124C111.705 585.381 125.477 551.179 125.477 511.523C125.477 472.094 111.52 437.559 91.8291 421.696L91.8303 601.124Z" fill="#F8F9FA"/>
<path d="M180.755 296.719H0.5V314.144H180.755V296.719Z" fill="#F8F9FA"/>
<path d="M180.755 333.971H0.5V351.396H180.755V333.971Z" fill="#282828" fill-opacity="0.9"/>
<path d="M0.499969 384.443H180.755V351.397H0.499969V384.443Z" fill="#9C9C9C"/>
<path d="M342.984 529.849H271.483C271.483 549.593 287.489 565.599 307.234 565.599C307.234 545.855 323.24 529.849 342.984 529.849Z" fill="#9C9C9C"/>
<path d="M342.984 529.849C342.984 549.593 326.978 565.599 307.234 565.599H378.735C378.735 545.855 362.729 529.849 342.984 529.849Z" fill="#9C9C9C"/>
<path d="M342.984 529.849C323.239 529.849 307.234 545.855 307.234 565.599C326.978 565.599 342.984 549.593 342.984 529.849Z" fill="#282828" fill-opacity="0.9"/>
<path d="M342.984 601.35H271.483C271.483 581.606 287.489 565.599 307.234 565.599C307.234 585.343 323.24 601.35 342.984 601.35Z" fill="#9C9C9C"/>
<path d="M342.984 601.35C342.984 581.606 326.978 565.599 307.234 565.599H378.735C378.735 585.343 362.729 601.35 342.984 601.35Z" fill="#282828" fill-opacity="0.9"/>
<path d="M342.984 601.35C323.239 601.35 307.234 585.343 307.234 565.599C326.978 565.599 342.984 581.606 342.984 601.35Z" fill="#9C9C9C"/>
<g opacity="0.75">
<path d="M414.486 529.849H342.985C342.985 549.593 358.99 565.599 378.735 565.599C378.735 545.855 394.741 529.849 414.486 529.849Z" fill="#282828" fill-opacity="0.9"/>
</g>
<path d="M414.486 529.849C414.486 549.593 398.48 565.599 378.735 565.599H450.236C450.236 545.855 434.23 529.849 414.486 529.849Z" fill="#282828" fill-opacity="0.9"/>
<path d="M414.486 529.849C394.741 529.849 378.735 545.855 378.735 565.599C398.479 565.599 414.486 549.593 414.486 529.849Z" fill="#9C9C9C"/>
<g opacity="0.61">
<path d="M414.486 601.35H342.985C342.985 581.606 358.99 565.599 378.735 565.599C378.735 585.343 394.741 601.35 414.486 601.35Z" fill="#9C9C9C"/>
<path d="M414.486 601.35C414.486 581.606 398.48 565.599 378.735 565.599H450.236C450.236 585.343 434.23 601.35 414.486 601.35Z" fill="#282828" fill-opacity="0.9"/>
<path d="M414.486 601.35C394.741 601.35 378.735 585.343 378.735 565.599C398.479 565.599 414.486 581.606 414.486 601.35Z" fill="#9C9C9C"/>
</g>
<path d="M465.241 554.45C471.371 554.45 476.34 549.481 476.34 543.351C476.34 537.221 471.371 532.251 465.241 532.251C459.111 532.251 454.141 537.221 454.141 543.351C454.141 549.481 459.111 554.45 465.241 554.45Z" fill="#9C9C9C"/>
<path d="M465.241 595.342C471.371 595.342 476.34 590.372 476.34 584.242C476.34 578.112 471.371 573.143 465.241 573.143C459.111 573.143 454.141 578.112 454.141 584.242C454.141 590.372 459.111 595.342 465.241 595.342Z" fill="#9C9C9C"/>
<path d="M246.742 235.646L233.416 214.403H260.067L246.742 235.646Z" fill="#9C9C9C"/>
<path d="M120.144 284.537H108.127V296.554H120.144V284.537Z" fill="#F8F9FA"/>
<path d="M132.161 284.537H120.144V296.554H132.161V284.537Z" fill="#9C9C9C"/>
<path d="M144.178 284.537H132.161V296.554H144.178V284.537Z" fill="#282828" fill-opacity="0.9"/>
<path d="M156.195 284.537H144.178V296.554H156.195V284.537Z" fill="#282828" fill-opacity="0.9"/>
<path d="M168.212 284.537H156.195V296.554H168.212V284.537Z" fill="#9C9C9C"/>
<path d="M180.229 284.537H168.212V296.554H180.229V284.537Z" fill="#9C9C9C"/>
<path d="M132.161 272.52H120.144V284.537H132.161V272.52Z" fill="#F8F9FA"/>
<path d="M144.178 272.52H132.161V284.537H144.178V272.52Z" fill="#9C9C9C"/>
<path d="M156.195 272.52H144.178V284.537H156.195V272.52Z" fill="#282828" fill-opacity="0.9"/>
<path d="M168.212 272.52H156.195V284.537H168.212V272.52Z" fill="#282828" fill-opacity="0.9"/>
<path d="M180.229 272.52H168.212V284.537H180.229V272.52Z" fill="#9C9C9C"/>
<path d="M144.178 260.503H132.161V272.52H144.178V260.503Z" fill="#F8F9FA"/>
<path d="M156.195 260.503H144.178V272.52H156.195V260.503Z" fill="#9C9C9C"/>
<path d="M168.212 260.503H156.195V272.52H168.212V260.503Z" fill="#282828" fill-opacity="0.9"/>
<path d="M180.229 260.503H168.212V272.52H180.229V260.503Z" fill="#282828" fill-opacity="0.9"/>
<path d="M156.195 248.486H144.178V260.503H156.195V248.486Z" fill="#F8F9FA"/>
<path d="M168.212 248.486H156.195V260.503H168.212V248.486Z" fill="#9C9C9C"/>
<path d="M180.229 248.486H168.212V260.503H180.229V248.486Z" fill="#282828" fill-opacity="0.9"/>
<path d="M168.212 236.469H156.195V248.486H168.212V236.469Z" fill="#F8F9FA"/>
<path d="M180.229 236.469H168.212V248.486H180.229V236.469Z" fill="#9C9C9C"/>
<path d="M180.229 224.452H168.212V236.469H180.229V224.452Z" fill="#F8F9FA"/>
<path d="M409.153 264.709V276.726H421.17V264.709H409.153Z" fill="#9C9C9C"/>
<path d="M409.153 252.692V264.709H421.17V252.692H409.153Z" fill="#9C9C9C"/>
<path d="M409.153 240.675V252.692H421.17V240.675H409.153Z" fill="#9C9C9C"/>
<path d="M409.153 228.658V240.675H421.17V228.658H409.153Z" fill="#9C9C9C"/>
<path d="M409.153 216.641V228.658H421.17V216.641H409.153Z" fill="#9C9C9C"/>
<path d="M409.153 204.624V216.641H421.17V204.624H409.153Z" fill="#9C9C9C"/>
<path d="M397.136 252.692V264.709H409.153V252.692H397.136Z" fill="#9C9C9C"/>
<path d="M397.136 240.675V252.692H409.153V240.675H397.136Z" fill="#9C9C9C"/>
<path d="M397.136 228.658V240.675H409.153V228.658H397.136Z" fill="#9C9C9C"/>
<path d="M397.136 216.641V228.658H409.153V216.641H397.136Z" fill="#9C9C9C"/>
<path d="M397.136 204.624V216.641H409.153V204.624H397.136Z" fill="#9C9C9C"/>
<path d="M385.119 240.675V252.692H397.136V240.675H385.119Z" fill="#9C9C9C"/>
<path d="M385.119 228.658V240.675H397.136V228.658H385.119Z" fill="#9C9C9C"/>
<path d="M385.119 216.641V228.658H397.136V216.641H385.119Z" fill="#9C9C9C"/>
<path d="M385.119 204.624V216.641H397.136V204.624H385.119Z" fill="#9C9C9C"/>
<path d="M373.102 228.658V240.675H385.119V228.658H373.102Z" fill="#9C9C9C"/>
<path d="M373.102 216.641V228.658H385.119V216.641H373.102Z" fill="#9C9C9C"/>
<path d="M373.102 204.624V216.641H385.119V204.624H373.102Z" fill="#9C9C9C"/>
<path d="M361.085 216.641V228.658H373.102V216.641H361.085Z" fill="#9C9C9C"/>
<path d="M361.085 204.624V216.641H373.102V204.624H361.085Z" fill="#9C9C9C"/>
<path d="M349.068 204.624V216.641H361.085V204.624H349.068Z" fill="#9C9C9C"/>
</g>
<defs>
<clipPath id="clip0_136_355">
<rect width="601" height="601" fill="white" transform="translate(0.5 0.5)"/>
</clipPath>
</defs>
</svg>
