<svg width="437" height="489" viewBox="0 0 437 489" fill="none" xmlns="http://www.w3.org/2000/svg">
<path d="M405.289 389.35L436.294 8.66698C436.675 3.99856 432.987 0 428.302 0H218.5H8.69784C4.01282 0 0.325715 3.99856 0.705935 8.66698L31.7106 389.35C31.9361 392.12 33.5801 394.575 36.0554 395.84L214.854 475.14C217.143 476.308 219.857 476.308 222.146 475.14L400.946 395.84C403.419 394.575 405.063 392.12 405.289 389.35Z" fill="url(#paint0_linear_284_30)"/>
<path d="M89 71H358L349 125.045L140.5 125.614V186H347L329.5 361.5L217 394.5L110 361.5L89 286.5H147.5L158 323.5L220 341L283 323.5L290 235H89V71Z" fill="#DEE2E6"/>
<defs>
<linearGradient id="paint0_linear_284_30" x1="5.33635e-05" y1="244.5" x2="437" y2="244.5" gradientUnits="userSpaceOnUse">
<stop offset="0.501183" stop-color="#495057"/>
<stop offset="0.501283" stop-color="#343A40"/>
</linearGradient>
</defs>
</svg>
