<svg width="437" height="489" viewBox="0 0 437 489" fill="none" xmlns="http://www.w3.org/2000/svg">
<path d="M405.289 389.35L436.294 8.66698C436.675 3.99856 432.987 0 428.302 0H218.5H8.69784C4.01282 0 0.325715 3.99856 0.705935 8.66698L31.7106 389.35C31.9361 392.12 33.5801 394.575 36.0554 395.84L214.854 475.14C217.143 476.308 219.857 476.308 222.146 475.14L400.946 395.84C403.419 394.575 405.063 392.12 405.289 389.35Z" fill="url(#paint0_linear_131_73)"/>
<path d="M278.575 121.149H91.3265C87.2417 121.149 83.8097 118.079 83.3574 114.02L78.0503 66.4042C77.5209 61.6547 81.2392 57.5 86.0193 57.5H352.554C357.401 57.5 361.142 61.7683 360.502 66.5734L318.146 384.958C317.684 388.421 315.034 391.186 311.593 391.796L220.5 410C219.474 410.18 218.421 410.16 217.401 409.94L123.212 391.938C119.979 391.236 117.509 388.621 116.993 385.354L104.237 304.565C103.469 299.701 107.23 295.3 112.157 295.3H143.121C146.978 295.3 150.289 298.046 151.002 301.834L156.803 332.679C157.382 335.759 159.703 338.218 162.744 338.976L217.326 347.952C218.53 348.253 219.789 348.269 221 348L257.93 338.917C261.155 338.202 263.611 335.583 264.118 332.32L275.145 261.229C275.899 256.369 272.14 251.984 267.223 251.984H103.752C99.6625 251.984 96.2285 248.905 95.7817 244.843L90.4501 196.342C89.9283 191.596 93.6452 187.45 98.4203 187.45H269.835C273.734 187.45 277.068 184.647 277.735 180.807L286.475 130.538C287.327 125.636 283.552 121.149 278.575 121.149Z" fill="#DEE2E6"/>
<defs>
<linearGradient id="paint0_linear_131_73" x1="5.35679e-05" y1="244.5" x2="437" y2="244.5" gradientUnits="userSpaceOnUse">
<stop offset="0.501183" stop-color="#495057"/>
<stop offset="0.501283" stop-color="#343A40"/>
</linearGradient>
</defs>
</svg>
